# MagicaVoxel @ Ephtracy

# group
o 

# material
mtllib map_v1-13.mtl
usemtl palette

# normals
vn -1 0 0
vn 1 0 0
vn 0 0 1
vn 0 0 -1
vn 0 -1 0
vn 0 1 0

# texcoords
vt 0.00195312 0.5
vt 0.0214844 0.5
vt 0.599609 0.5

# verts
v 8.2 0.9 -0.9
v 8.2 0.9 -1
v 8.2 1 -0.9
v 8.2 1 -1
v 8.3 0.8 -0.9
v 8.3 0.8 -1
v 8.3 0.9 -0.8
v 8.3 0.9 -0.9
v 8.3 0.9 -1
v 8.3 0.9 -1.1
v 8.3 1 -0.8
v 8.3 1 -0.9
v 8.3 1 -1
v 8.3 1 -1.1
v 8.7 1 -1.4
v 8.7 1 -1.5
v 8.7 1.1 -1.4
v 8.7 1.1 -1.5
v 8.8 0.8 -1.4
v 8.8 0.8 -1.5
v 8.8 1 -1.3
v 8.8 1 -1.4
v 8.8 1 -1.5
v 8.8 1 -1.6
v 8.8 1.1 -1.3
v 8.8 1.1 -1.4
v 8.8 1.1 -1.5
v 8.8 1.1 -1.6
v 8.9 1.1 -0.9
v 8.9 1.1 -1
v 8.9 1.2 -0.9
v 8.9 1.2 -1
v 9 0.8 -0.9
v 9 0.8 -1
v 9 1.1 -0.8
v 9 1.1 -0.9
v 9 1.1 -1
v 9 1.1 -1.1
v 9 1.2 -0.8
v 9 1.2 -0.9
v 9 1.2 -1
v 9 1.2 -1.1
v 8.4 0.8 -0.9
v 8.4 0.8 -1
v 8.4 0.9 -0.8
v 8.4 0.9 -0.9
v 8.4 0.9 -1
v 8.4 0.9 -1.1
v 8.4 1 -0.8
v 8.4 1 -0.9
v 8.4 1 -1
v 8.4 1 -1.1
v 8.5 0.9 -0.9
v 8.5 0.9 -1
v 8.5 1 -0.9
v 8.5 1 -1
v 8.9 0.8 -1.4
v 8.9 0.8 -1.5
v 8.9 1 -1.3
v 8.9 1 -1.4
v 8.9 1 -1.5
v 8.9 1 -1.6
v 8.9 1.1 -1.3
v 8.9 1.1 -1.4
v 8.9 1.1 -1.5
v 8.9 1.1 -1.6
v 9 1 -1.4
v 9 1 -1.5
v 9 1.1 -1.4
v 9 1.1 -1.5
v 9.1 0.8 -0.9
v 9.1 0.8 -1
v 9.1 1.1 -0.8
v 9.1 1.1 -0.9
v 9.1 1.1 -1
v 9.1 1.1 -1.1
v 9.1 1.2 -0.8
v 9.1 1.2 -0.9
v 9.1 1.2 -1
v 9.1 1.2 -1.1
v 9.2 1.1 -0.9
v 9.2 1.1 -1
v 9.2 1.2 -0.9
v 9.2 1.2 -1
v 8.3 0.9 -0.8
v 8.3 1 -0.8
v 8.4 0.9 -0.8
v 8.4 1 -0.8
v 9 1.1 -0.8
v 9 1.2 -0.8
v 9.1 1.1 -0.8
v 9.1 1.2 -0.8
v 8.2 0.9 -0.9
v 8.2 1 -0.9
v 8.3 0.8 -0.9
v 8.3 0.9 -0.9
v 8.3 1 -0.9
v 8.4 0.8 -0.9
v 8.4 0.9 -0.9
v 8.4 1 -0.9
v 8.5 0.9 -0.9
v 8.5 1 -0.9
v 8.9 1.1 -0.9
v 8.9 1.2 -0.9
v 9 0.8 -0.9
v 9 1.1 -0.9
v 9 1.2 -0.9
v 9.1 0.8 -0.9
v 9.1 1.1 -0.9
v 9.1 1.2 -0.9
v 9.2 1.1 -0.9
v 9.2 1.2 -0.9
v 8.8 1 -1.3
v 8.8 1.1 -1.3
v 8.9 1 -1.3
v 8.9 1.1 -1.3
v 8.7 1 -1.4
v 8.7 1.1 -1.4
v 8.8 0.8 -1.4
v 8.8 1 -1.4
v 8.8 1.1 -1.4
v 8.9 0.8 -1.4
v 8.9 1 -1.4
v 8.9 1.1 -1.4
v 9 1 -1.4
v 9 1.1 -1.4
v 8.2 0.9 -1
v 8.2 1 -1
v 8.3 0.8 -1
v 8.3 0.9 -1
v 8.3 1 -1
v 8.4 0.8 -1
v 8.4 0.9 -1
v 8.4 1 -1
v 8.5 0.9 -1
v 8.5 1 -1
v 8.9 1.1 -1
v 8.9 1.2 -1
v 9 0.8 -1
v 9 1.1 -1
v 9 1.2 -1
v 9.1 0.8 -1
v 9.1 1.1 -1
v 9.1 1.2 -1
v 9.2 1.1 -1
v 9.2 1.2 -1
v 8.3 0.9 -1.1
v 8.3 1 -1.1
v 8.4 0.9 -1.1
v 8.4 1 -1.1
v 9 1.1 -1.1
v 9 1.2 -1.1
v 9.1 1.1 -1.1
v 9.1 1.2 -1.1
v 8.7 1 -1.5
v 8.7 1.1 -1.5
v 8.8 0.8 -1.5
v 8.8 1 -1.5
v 8.8 1.1 -1.5
v 8.9 0.8 -1.5
v 8.9 1 -1.5
v 8.9 1.1 -1.5
v 9 1 -1.5
v 9 1.1 -1.5
v 8.8 1 -1.6
v 8.8 1.1 -1.6
v 8.9 1 -1.6
v 8.9 1.1 -1.6
v 8.3 0.8 -0.9
v 8.4 0.8 -0.9
v 9 0.8 -0.9
v 9.1 0.8 -0.9
v 8.3 0.8 -1
v 8.4 0.8 -1
v 9 0.8 -1
v 9.1 0.8 -1
v 8.8 0.8 -1.4
v 8.9 0.8 -1.4
v 8.8 0.8 -1.5
v 8.9 0.8 -1.5
v 8.3 0.9 -0.8
v 8.4 0.9 -0.8
v 8.2 0.9 -0.9
v 8.3 0.9 -0.9
v 8.4 0.9 -0.9
v 8.5 0.9 -0.9
v 8.2 0.9 -1
v 8.3 0.9 -1
v 8.4 0.9 -1
v 8.5 0.9 -1
v 8.3 0.9 -1.1
v 8.4 0.9 -1.1
v 8.8 1 -1.3
v 8.9 1 -1.3
v 8.7 1 -1.4
v 8.8 1 -1.4
v 8.9 1 -1.4
v 9 1 -1.4
v 8.7 1 -1.5
v 8.8 1 -1.5
v 8.9 1 -1.5
v 9 1 -1.5
v 8.8 1 -1.6
v 8.9 1 -1.6
v 9 1.1 -0.8
v 9.1 1.1 -0.8
v 8.9 1.1 -0.9
v 9 1.1 -0.9
v 9.1 1.1 -0.9
v 9.2 1.1 -0.9
v 8.9 1.1 -1
v 9 1.1 -1
v 9.1 1.1 -1
v 9.2 1.1 -1
v 9 1.1 -1.1
v 9.1 1.1 -1.1
v 8.3 1 -0.8
v 8.4 1 -0.8
v 8.2 1 -0.9
v 8.3 1 -0.9
v 8.4 1 -0.9
v 8.5 1 -0.9
v 8.2 1 -1
v 8.3 1 -1
v 8.4 1 -1
v 8.5 1 -1
v 8.3 1 -1.1
v 8.4 1 -1.1
v 8.8 1.1 -1.3
v 8.9 1.1 -1.3
v 8.7 1.1 -1.4
v 8.8 1.1 -1.4
v 8.9 1.1 -1.4
v 9 1.1 -1.4
v 8.7 1.1 -1.5
v 8.8 1.1 -1.5
v 8.9 1.1 -1.5
v 9 1.1 -1.5
v 8.8 1.1 -1.6
v 8.9 1.1 -1.6
v 9 1.2 -0.8
v 9.1 1.2 -0.8
v 8.9 1.2 -0.9
v 9 1.2 -0.9
v 9.1 1.2 -0.9
v 9.2 1.2 -0.9
v 8.9 1.2 -1
v 9 1.2 -1
v 9.1 1.2 -1
v 9.2 1.2 -1
v 9 1.2 -1.1
v 9.1 1.2 -1.1

# faces
f 3/1/1 2/1/1 1/1/1
f 4/1/1 2/1/1 3/1/1
f 8/3/1 6/3/1 5/3/1
f 9/3/1 6/3/1 8/3/1
f 11/1/1 8/1/1 7/1/1
f 12/1/1 8/1/1 11/1/1
f 13/1/1 10/1/1 9/1/1
f 14/1/1 10/1/1 13/1/1
f 17/1/1 16/1/1 15/1/1
f 18/1/1 16/1/1 17/1/1
f 22/3/1 20/3/1 19/3/1
f 23/3/1 20/3/1 22/3/1
f 25/1/1 22/1/1 21/1/1
f 26/1/1 22/1/1 25/1/1
f 27/1/1 24/1/1 23/1/1
f 28/1/1 24/1/1 27/1/1
f 31/1/1 30/1/1 29/1/1
f 32/1/1 30/1/1 31/1/1
f 36/3/1 34/3/1 33/3/1
f 37/3/1 34/3/1 36/3/1
f 39/1/1 36/1/1 35/1/1
f 40/1/1 36/1/1 39/1/1
f 41/1/1 38/1/1 37/1/1
f 42/1/1 38/1/1 41/1/1
f 43/3/2 44/3/2 46/3/2
f 46/3/2 44/3/2 47/3/2
f 45/1/2 46/1/2 49/1/2
f 49/1/2 46/1/2 50/1/2
f 47/1/2 48/1/2 51/1/2
f 51/1/2 48/1/2 52/1/2
f 53/1/2 54/1/2 55/1/2
f 55/1/2 54/1/2 56/1/2
f 57/3/2 58/3/2 60/3/2
f 60/3/2 58/3/2 61/3/2
f 59/1/2 60/1/2 63/1/2
f 63/1/2 60/1/2 64/1/2
f 61/1/2 62/1/2 65/1/2
f 65/1/2 62/1/2 66/1/2
f 67/1/2 68/1/2 69/1/2
f 69/1/2 68/1/2 70/1/2
f 71/3/2 72/3/2 74/3/2
f 74/3/2 72/3/2 75/3/2
f 73/1/2 74/1/2 77/1/2
f 77/1/2 74/1/2 78/1/2
f 75/1/2 76/1/2 79/1/2
f 79/1/2 76/1/2 80/1/2
f 81/1/2 82/1/2 83/1/2
f 83/1/2 82/1/2 84/1/2
f 87/1/3 86/1/3 85/1/3
f 88/1/3 86/1/3 87/1/3
f 91/1/3 90/1/3 89/1/3
f 92/1/3 90/1/3 91/1/3
f 96/1/3 94/1/3 93/1/3
f 97/1/3 94/1/3 96/1/3
f 98/3/3 96/3/3 95/3/3
f 99/3/3 96/3/3 98/3/3
f 101/1/3 100/1/3 99/1/3
f 102/1/3 100/1/3 101/1/3
f 106/1/3 104/1/3 103/1/3
f 107/1/3 104/1/3 106/1/3
f 108/3/3 106/3/3 105/3/3
f 109/3/3 106/3/3 108/3/3
f 111/1/3 110/1/3 109/1/3
f 112/1/3 110/1/3 111/1/3
f 115/1/3 114/1/3 113/1/3
f 116/1/3 114/1/3 115/1/3
f 120/1/3 118/1/3 117/1/3
f 121/1/3 118/1/3 120/1/3
f 122/3/3 120/3/3 119/3/3
f 123/3/3 120/3/3 122/3/3
f 125/1/3 124/1/3 123/1/3
f 126/1/3 124/1/3 125/1/3
f 127/1/4 128/1/4 130/1/4
f 130/1/4 128/1/4 131/1/4
f 129/3/4 130/3/4 132/3/4
f 132/3/4 130/3/4 133/3/4
f 133/1/4 134/1/4 135/1/4
f 135/1/4 134/1/4 136/1/4
f 137/1/4 138/1/4 140/1/4
f 140/1/4 138/1/4 141/1/4
f 139/3/4 140/3/4 142/3/4
f 142/3/4 140/3/4 143/3/4
f 143/1/4 144/1/4 145/1/4
f 145/1/4 144/1/4 146/1/4
f 147/1/4 148/1/4 149/1/4
f 149/1/4 148/1/4 150/1/4
f 151/1/4 152/1/4 153/1/4
f 153/1/4 152/1/4 154/1/4
f 155/1/4 156/1/4 158/1/4
f 158/1/4 156/1/4 159/1/4
f 157/3/4 158/3/4 160/3/4
f 160/3/4 158/3/4 161/3/4
f 161/1/4 162/1/4 163/1/4
f 163/1/4 162/1/4 164/1/4
f 165/1/4 166/1/4 167/1/4
f 167/1/4 166/1/4 168/1/4
f 173/3/5 170/3/5 169/3/5
f 174/3/5 170/3/5 173/3/5
f 175/3/5 172/3/5 171/3/5
f 176/3/5 172/3/5 175/3/5
f 179/3/5 178/3/5 177/3/5
f 180/3/5 178/3/5 179/3/5
f 184/1/5 182/1/5 181/1/5
f 185/1/5 182/1/5 184/1/5
f 187/1/5 184/1/5 183/1/5
f 188/1/5 184/1/5 187/1/5
f 189/1/5 186/1/5 185/1/5
f 190/1/5 186/1/5 189/1/5
f 191/1/5 189/1/5 188/1/5
f 192/1/5 189/1/5 191/1/5
f 196/1/5 194/1/5 193/1/5
f 197/1/5 194/1/5 196/1/5
f 199/1/5 196/1/5 195/1/5
f 200/1/5 196/1/5 199/1/5
f 201/1/5 198/1/5 197/1/5
f 202/1/5 198/1/5 201/1/5
f 203/1/5 201/1/5 200/1/5
f 204/1/5 201/1/5 203/1/5
f 208/1/5 206/1/5 205/1/5
f 209/1/5 206/1/5 208/1/5
f 211/1/5 208/1/5 207/1/5
f 212/1/5 208/1/5 211/1/5
f 213/1/5 210/1/5 209/1/5
f 214/1/5 210/1/5 213/1/5
f 215/1/5 213/1/5 212/1/5
f 216/1/5 213/1/5 215/1/5
f 217/1/6 218/1/6 220/1/6
f 220/1/6 218/1/6 221/1/6
f 219/1/6 220/1/6 223/1/6
f 220/2/6 221/2/6 224/2/6
f 223/1/6 220/1/6 224/1/6
f 221/1/6 222/1/6 225/1/6
f 224/2/6 221/2/6 225/2/6
f 225/1/6 222/1/6 226/1/6
f 224/1/6 225/1/6 227/1/6
f 227/1/6 225/1/6 228/1/6
f 229/1/6 230/1/6 232/1/6
f 232/1/6 230/1/6 233/1/6
f 231/1/6 232/1/6 235/1/6
f 232/2/6 233/2/6 236/2/6
f 235/1/6 232/1/6 236/1/6
f 233/1/6 234/1/6 237/1/6
f 236/2/6 233/2/6 237/2/6
f 237/1/6 234/1/6 238/1/6
f 236/1/6 237/1/6 239/1/6
f 239/1/6 237/1/6 240/1/6
f 241/1/6 242/1/6 244/1/6
f 244/1/6 242/1/6 245/1/6
f 243/1/6 244/1/6 247/1/6
f 244/2/6 245/2/6 248/2/6
f 247/1/6 244/1/6 248/1/6
f 245/1/6 246/1/6 249/1/6
f 248/2/6 245/2/6 249/2/6
f 249/1/6 246/1/6 250/1/6
f 248/1/6 249/1/6 251/1/6
f 251/1/6 249/1/6 252/1/6
