# MagicaVoxel @ Ephtracy

# group
o 

# material
mtllib map_v1-20.mtl
usemtl palette

# normals
vn -1 0 0
vn 1 0 0
vn 0 0 1
vn 0 0 -1
vn 0 -1 0
vn 0 1 0

# texcoords
vt 0.541016 0.5
vt 0.544922 0.5
vt 0.599609 0.5

# verts
v -7.6 1.3 -8.4
v -7.6 1.3 -8.6
v -7.6 1.3 -8.7
v -7.6 1.4 -8.4
v -7.6 1.4 -8.6
v -7.6 1.4 -8.7
v -7.6 1.5 -8.5
v -7.6 1.5 -8.6
v -7.6 1.6 -8.4
v -7.6 1.6 -8.5
v -7.6 1.6 -8.7
v -7.5 1.2 -8.4
v -7.5 1.2 -8.7
v -7.5 1.3 -8.3
v -7.5 1.3 -8.4
v -7.5 1.3 -8.6
v -7.5 1.3 -8.7
v -7.5 1.3 -8.8
v -7.5 1.4 -8.4
v -7.5 1.4 -8.7
v -7.5 1.5 -8.7
v -7.5 1.5 -8.8
v -7.5 1.6 -8.3
v -7.5 1.6 -8.4
v -7.5 1.6 -8.5
v -7.5 1.6 -8.7
v -7.5 1.6 -8.8
v -7.5 1.7 -8.4
v -7.5 1.7 -8.7
v -7.4 0.8 -8.5
v -7.4 0.8 -8.6
v -7.4 1.2 -8.5
v -7.4 1.2 -8.6
v -7.1 1.8 -8.9
v -7.1 1.8 -9
v -7.1 1.8 -9.2
v -7.1 1.9 -9.1
v -7.1 1.9 -9.2
v -7.1 2 -8.9
v -7.1 2 -9
v -7.1 2 -9.1
v -7.1 2.1 -8.9
v -7.1 2.1 -9
v -7.1 2.1 -9.2
v -7 1.7 -8.9
v -7 1.7 -9.2
v -7 1.8 -8.8
v -7 1.8 -8.9
v -7 1.8 -9
v -7 1.8 -9.2
v -7 1.8 -9.3
v -7 1.9 -9.2
v -7 1.9 -9.3
v -7 2 -8.9
v -7 2.1 -8.8
v -7 2.1 -8.9
v -7 2.1 -9
v -7 2.1 -9.1
v -7 2.1 -9.2
v -7 2.1 -9.3
v -7 2.2 -8.9
v -7 2.2 -9.1
v -7 2.2 -9.2
v -6.9 0.8 -9
v -6.9 0.8 -9.1
v -6.9 1.7 -9
v -6.9 1.7 -9.1
v -6.9 2.4 -8.4
v -6.9 2.4 -8.5
v -6.9 2.4 -8.6
v -6.9 2.4 -8.7
v -6.9 2.5 -8.5
v -6.9 2.5 -8.6
v -6.9 2.6 -8.4
v -6.9 2.6 -8.5
v -6.9 2.6 -8.6
v -6.9 2.6 -8.7
v -6.9 2.7 -8.4
v -6.9 2.7 -8.5
v -6.9 2.7 -8.6
v -6.9 2.7 -8.7
v -6.8 2.3 -8.4
v -6.8 2.3 -8.5
v -6.8 2.3 -8.6
v -6.8 2.3 -8.7
v -6.8 2.4 -8.3
v -6.8 2.4 -8.4
v -6.8 2.4 -8.5
v -6.8 2.4 -8.6
v -6.8 2.4 -8.7
v -6.8 2.4 -8.8
v -6.8 2.5 -8.7
v -6.8 2.5 -8.8
v -6.8 2.6 -8.3
v -6.8 2.6 -8.4
v -6.8 2.6 -8.7
v -6.8 2.7 -8.3
v -6.8 2.7 -8.4
v -6.8 2.7 -8.5
v -6.8 2.7 -8.6
v -6.8 2.7 -8.7
v -6.8 2.7 -8.8
v -6.8 2.8 -8.4
v -6.8 2.8 -8.5
v -6.8 2.8 -8.7
v -6.7 0.8 -8.5
v -6.7 0.8 -8.6
v -6.7 2.3 -8.5
v -6.7 2.3 -8.6
v -7.3 0.8 -8.5
v -7.3 0.8 -8.6
v -7.3 1.2 -8.5
v -7.3 1.2 -8.6
v -7.2 1.2 -8.4
v -7.2 1.2 -8.6
v -7.2 1.2 -8.7
v -7.2 1.3 -8.3
v -7.2 1.3 -8.4
v -7.2 1.3 -8.6
v -7.2 1.3 -8.7
v -7.2 1.3 -8.8
v -7.2 1.4 -8.3
v -7.2 1.4 -8.4
v -7.2 1.4 -8.7
v -7.2 1.5 -8.3
v -7.2 1.5 -8.4
v -7.2 1.5 -8.7
v -7.2 1.5 -8.8
v -7.2 1.6 -8.3
v -7.2 1.6 -8.4
v -7.2 1.6 -8.5
v -7.2 1.6 -8.6
v -7.2 1.6 -8.7
v -7.2 1.6 -8.8
v -7.2 1.7 -8.4
v -7.2 1.7 -8.5
v -7.2 1.7 -8.7
v -7.1 1.3 -8.4
v -7.1 1.3 -8.6
v -7.1 1.3 -8.7
v -7.1 1.4 -8.4
v -7.1 1.4 -8.5
v -7.1 1.4 -8.6
v -7.1 1.4 -8.7
v -7.1 1.5 -8.4
v -7.1 1.5 -8.5
v -7.1 1.5 -8.6
v -7.1 1.6 -8.4
v -7.1 1.6 -8.5
v -7.1 1.6 -8.6
v -7.1 1.6 -8.7
v -6.8 0.8 -9
v -6.8 0.8 -9.1
v -6.8 1.7 -9
v -6.8 1.7 -9.1
v -6.7 1.7 -8.9
v -6.7 1.7 -9
v -6.7 1.7 -9.2
v -6.7 1.8 -8.8
v -6.7 1.8 -8.9
v -6.7 1.8 -9
v -6.7 1.8 -9.1
v -6.7 1.8 -9.2
v -6.7 1.8 -9.3
v -6.7 1.9 -9.2
v -6.7 1.9 -9.3
v -6.7 2 -8.8
v -6.7 2 -8.9
v -6.7 2.1 -8.8
v -6.7 2.1 -8.9
v -6.7 2.1 -9
v -6.7 2.1 -9.1
v -6.7 2.1 -9.2
v -6.7 2.1 -9.3
v -6.7 2.2 -8.9
v -6.7 2.2 -9.1
v -6.7 2.2 -9.2
v -6.6 0.8 -8.5
v -6.6 0.8 -8.6
v -6.6 1.8 -8.9
v -6.6 1.8 -9.1
v -6.6 1.8 -9.2
v -6.6 2 -9
v -6.6 2 -9.1
v -6.6 2.1 -8.9
v -6.6 2.1 -9
v -6.6 2.1 -9.2
v -6.6 2.3 -8.5
v -6.6 2.3 -8.6
v -6.5 2.3 -8.4
v -6.5 2.3 -8.7
v -6.5 2.4 -8.3
v -6.5 2.4 -8.4
v -6.5 2.4 -8.5
v -6.5 2.4 -8.6
v -6.5 2.4 -8.7
v -6.5 2.4 -8.8
v -6.5 2.5 -8.3
v -6.5 2.5 -8.4
v -6.5 2.6 -8.3
v -6.5 2.6 -8.4
v -6.5 2.7 -8.3
v -6.5 2.7 -8.4
v -6.5 2.7 -8.5
v -6.5 2.7 -8.7
v -6.5 2.7 -8.8
v -6.5 2.8 -8.4
v -6.5 2.8 -8.7
v -6.4 2.4 -8.4
v -6.4 2.4 -8.5
v -6.4 2.4 -8.6
v -6.4 2.4 -8.7
v -6.4 2.6 -8.4
v -6.4 2.6 -8.5
v -6.4 2.6 -8.6
v -6.4 2.7 -8.4
v -6.4 2.7 -8.5
v -6.4 2.7 -8.7
v -7.5 1.3 -8.3
v -7.5 1.6 -8.3
v -7.3 1.3 -8.3
v -7.3 1.4 -8.3
v -7.3 1.5 -8.3
v -7.3 1.6 -8.3
v -7.2 1.3 -8.3
v -7.2 1.4 -8.3
v -7.2 1.5 -8.3
v -7.2 1.6 -8.3
v -6.8 2.4 -8.3
v -6.8 2.6 -8.3
v -6.8 2.7 -8.3
v -6.7 2.6 -8.3
v -6.7 2.7 -8.3
v -6.6 2.4 -8.3
v -6.6 2.5 -8.3
v -6.6 2.6 -8.3
v -6.6 2.7 -8.3
v -6.5 2.4 -8.3
v -6.5 2.5 -8.3
v -6.5 2.6 -8.3
v -6.5 2.7 -8.3
v -7.6 1.3 -8.4
v -7.6 1.4 -8.4
v -7.6 1.6 -8.4
v -7.5 1.2 -8.4
v -7.5 1.3 -8.4
v -7.5 1.4 -8.4
v -7.5 1.6 -8.4
v -7.5 1.7 -8.4
v -7.4 1.6 -8.4
v -7.4 1.7 -8.4
v -7.3 1.2 -8.4
v -7.3 1.3 -8.4
v -7.3 1.6 -8.4
v -7.3 1.7 -8.4
v -7.2 1.2 -8.4
v -7.2 1.3 -8.4
v -7.2 1.4 -8.4
v -7.2 1.5 -8.4
v -7.2 1.6 -8.4
v -7.2 1.7 -8.4
v -7.1 1.3 -8.4
v -7.1 1.4 -8.4
v -7.1 1.5 -8.4
v -7.1 1.6 -8.4
v -6.9 2.4 -8.4
v -6.9 2.6 -8.4
v -6.9 2.7 -8.4
v -6.8 2.3 -8.4
v -6.8 2.4 -8.4
v -6.8 2.6 -8.4
v -6.8 2.7 -8.4
v -6.8 2.8 -8.4
v -6.7 2.7 -8.4
v -6.6 2.3 -8.4
v -6.6 2.4 -8.4
v -6.6 2.7 -8.4
v -6.5 2.3 -8.4
v -6.5 2.4 -8.4
v -6.5 2.5 -8.4
v -6.5 2.6 -8.4
v -6.5 2.7 -8.4
v -6.5 2.8 -8.4
v -6.4 2.4 -8.4
v -6.4 2.6 -8.4
v -6.4 2.7 -8.4
v -7.4 0.8 -8.5
v -7.4 1.2 -8.5
v -7.3 0.8 -8.5
v -7.3 1.2 -8.5
v -6.7 0.8 -8.5
v -6.7 2.3 -8.5
v -6.6 0.8 -8.5
v -6.6 2.3 -8.5
v -7 1.8 -8.8
v -7 2.1 -8.8
v -6.9 1.9 -8.8
v -6.9 2.1 -8.8
v -6.8 1.8 -8.8
v -6.8 1.9 -8.8
v -6.8 2 -8.8
v -6.8 2.1 -8.8
v -6.7 1.8 -8.8
v -6.7 2 -8.8
v -6.7 2.1 -8.8
v -7.1 1.8 -8.9
v -7.1 2 -8.9
v -7.1 2.1 -8.9
v -7 1.7 -8.9
v -7 1.8 -8.9
v -7 2 -8.9
v -7 2.1 -8.9
v -7 2.2 -8.9
v -6.9 1.7 -8.9
v -6.9 1.8 -8.9
v -6.9 2.1 -8.9
v -6.9 2.2 -8.9
v -6.8 1.8 -8.9
v -6.8 2.1 -8.9
v -6.8 2.2 -8.9
v -6.7 1.7 -8.9
v -6.7 1.8 -8.9
v -6.7 2 -8.9
v -6.7 2.1 -8.9
v -6.7 2.2 -8.9
v -6.6 1.8 -8.9
v -6.6 2.1 -8.9
v -6.9 0.8 -9
v -6.9 1.7 -9
v -6.8 0.8 -9
v -6.8 1.7 -9
v -7.4 0.8 -8.6
v -7.4 1.2 -8.6
v -7.3 0.8 -8.6
v -7.3 1.2 -8.6
v -6.7 0.8 -8.6
v -6.7 2.3 -8.6
v -6.6 0.8 -8.6
v -6.6 2.3 -8.6
v -7.6 1.3 -8.7
v -7.6 1.4 -8.7
v -7.6 1.6 -8.7
v -7.5 1.2 -8.7
v -7.5 1.3 -8.7
v -7.5 1.4 -8.7
v -7.5 1.5 -8.7
v -7.5 1.6 -8.7
v -7.5 1.7 -8.7
v -7.4 1.6 -8.7
v -7.3 1.3 -8.7
v -7.3 1.6 -8.7
v -7.3 1.7 -8.7
v -7.2 1.2 -8.7
v -7.2 1.3 -8.7
v -7.2 1.4 -8.7
v -7.2 1.5 -8.7
v -7.2 1.6 -8.7
v -7.2 1.7 -8.7
v -7.1 1.3 -8.7
v -7.1 1.4 -8.7
v -7.1 1.6 -8.7
v -6.9 2.4 -8.7
v -6.9 2.6 -8.7
v -6.9 2.7 -8.7
v -6.8 2.3 -8.7
v -6.8 2.4 -8.7
v -6.8 2.5 -8.7
v -6.8 2.6 -8.7
v -6.8 2.7 -8.7
v -6.8 2.8 -8.7
v -6.7 2.4 -8.7
v -6.7 2.7 -8.7
v -6.6 2.3 -8.7
v -6.6 2.4 -8.7
v -6.6 2.7 -8.7
v -6.6 2.8 -8.7
v -6.5 2.3 -8.7
v -6.5 2.4 -8.7
v -6.5 2.7 -8.7
v -6.5 2.8 -8.7
v -6.4 2.4 -8.7
v -6.4 2.7 -8.7
v -7.5 1.3 -8.8
v -7.5 1.5 -8.8
v -7.5 1.6 -8.8
v -7.4 1.4 -8.8
v -7.4 1.5 -8.8
v -7.4 1.6 -8.8
v -7.3 1.3 -8.8
v -7.3 1.4 -8.8
v -7.2 1.3 -8.8
v -7.2 1.5 -8.8
v -7.2 1.6 -8.8
v -6.8 2.4 -8.8
v -6.8 2.5 -8.8
v -6.8 2.7 -8.8
v -6.7 2.4 -8.8
v -6.7 2.5 -8.8
v -6.7 2.6 -8.8
v -6.7 2.7 -8.8
v -6.6 2.6 -8.8
v -6.6 2.7 -8.8
v -6.5 2.4 -8.8
v -6.5 2.7 -8.8
v -6.9 0.8 -9.1
v -6.9 1.7 -9.1
v -6.8 0.8 -9.1
v -6.8 1.7 -9.1
v -7.1 1.8 -9.2
v -7.1 1.9 -9.2
v -7.1 2.1 -9.2
v -7 1.7 -9.2
v -7 1.8 -9.2
v -7 1.9 -9.2
v -7 2.1 -9.2
v -7 2.2 -9.2
v -6.8 1.8 -9.2
v -6.8 2.1 -9.2
v -6.7 1.7 -9.2
v -6.7 1.8 -9.2
v -6.7 1.9 -9.2
v -6.7 2.1 -9.2
v -6.7 2.2 -9.2
v -6.6 1.8 -9.2
v -6.6 2.1 -9.2
v -7 1.8 -9.3
v -7 1.9 -9.3
v -7 2.1 -9.3
v -6.8 1.8 -9.3
v -6.8 1.9 -9.3
v -6.8 2.1 -9.3
v -6.7 1.8 -9.3
v -6.7 1.9 -9.3
v -6.7 2.1 -9.3
v -7.4 0.8 -8.5
v -7.3 0.8 -8.5
v -6.7 0.8 -8.5
v -6.6 0.8 -8.5
v -7.4 0.8 -8.6
v -7.3 0.8 -8.6
v -6.7 0.8 -8.6
v -6.6 0.8 -8.6
v -6.9 0.8 -9
v -6.8 0.8 -9
v -6.9 0.8 -9.1
v -6.8 0.8 -9.1
v -7.5 1.2 -8.4
v -7.3 1.2 -8.4
v -7.2 1.2 -8.4
v -7.4 1.2 -8.5
v -7.3 1.2 -8.5
v -7.4 1.2 -8.6
v -7.3 1.2 -8.6
v -7.2 1.2 -8.6
v -7.5 1.2 -8.7
v -7.2 1.2 -8.7
v -7.5 1.3 -8.3
v -7.3 1.3 -8.3
v -7.2 1.3 -8.3
v -7.6 1.3 -8.4
v -7.5 1.3 -8.4
v -7.3 1.3 -8.4
v -7.2 1.3 -8.4
v -7.1 1.3 -8.4
v -7.6 1.3 -8.6
v -7.5 1.3 -8.6
v -7.2 1.3 -8.6
v -7.1 1.3 -8.6
v -7.6 1.3 -8.7
v -7.5 1.3 -8.7
v -7.3 1.3 -8.7
v -7.2 1.3 -8.7
v -7.1 1.3 -8.7
v -7.5 1.3 -8.8
v -7.3 1.3 -8.8
v -7.2 1.3 -8.8
v -7 1.7 -8.9
v -6.9 1.7 -8.9
v -6.7 1.7 -8.9
v -6.9 1.7 -9
v -6.8 1.7 -9
v -6.7 1.7 -9
v -6.9 1.7 -9.1
v -6.8 1.7 -9.1
v -7 1.7 -9.2
v -6.7 1.7 -9.2
v -7 1.8 -8.8
v -6.8 1.8 -8.8
v -6.7 1.8 -8.8
v -7.1 1.8 -8.9
v -7 1.8 -8.9
v -6.9 1.8 -8.9
v -6.8 1.8 -8.9
v -6.7 1.8 -8.9
v -6.6 1.8 -8.9
v -7.1 1.8 -9
v -7 1.8 -9
v -6.7 1.8 -9
v -6.7 1.8 -9.1
v -6.6 1.8 -9.1
v -7.1 1.8 -9.2
v -7 1.8 -9.2
v -6.8 1.8 -9.2
v -6.7 1.8 -9.2
v -6.6 1.8 -9.2
v -7 1.8 -9.3
v -6.8 1.8 -9.3
v -6.7 1.8 -9.3
v -6.8 2.3 -8.4
v -6.6 2.3 -8.4
v -6.5 2.3 -8.4
v -6.8 2.3 -8.5
v -6.7 2.3 -8.5
v -6.6 2.3 -8.5
v -6.8 2.3 -8.6
v -6.7 2.3 -8.6
v -6.6 2.3 -8.6
v -6.8 2.3 -8.7
v -6.6 2.3 -8.7
v -6.5 2.3 -8.7
v -6.8 2.4 -8.3
v -6.6 2.4 -8.3
v -6.5 2.4 -8.3
v -6.9 2.4 -8.4
v -6.8 2.4 -8.4
v -6.6 2.4 -8.4
v -6.5 2.4 -8.4
v -6.4 2.4 -8.4
v -6.9 2.4 -8.5
v -6.8 2.4 -8.5
v -6.5 2.4 -8.5
v -6.4 2.4 -8.5
v -6.9 2.4 -8.6
v -6.8 2.4 -8.6
v -6.5 2.4 -8.6
v -6.4 2.4 -8.6
v -6.9 2.4 -8.7
v -6.8 2.4 -8.7
v -6.7 2.4 -8.7
v -6.6 2.4 -8.7
v -6.5 2.4 -8.7
v -6.4 2.4 -8.7
v -6.8 2.4 -8.8
v -6.7 2.4 -8.8
v -6.5 2.4 -8.8
v -7.5 1.6 -8.3
v -7.3 1.6 -8.3
v -7.2 1.6 -8.3
v -7.6 1.6 -8.4
v -7.5 1.6 -8.4
v -7.4 1.6 -8.4
v -7.3 1.6 -8.4
v -7.2 1.6 -8.4
v -7.1 1.6 -8.4
v -7.6 1.6 -8.5
v -7.5 1.6 -8.5
v -7.2 1.6 -8.5
v -7.1 1.6 -8.5
v -7.2 1.6 -8.6
v -7.1 1.6 -8.6
v -7.6 1.6 -8.7
v -7.5 1.6 -8.7
v -7.4 1.6 -8.7
v -7.3 1.6 -8.7
v -7.2 1.6 -8.7
v -7.1 1.6 -8.7
v -7.5 1.6 -8.8
v -7.4 1.6 -8.8
v -7.2 1.6 -8.8
v -7.5 1.7 -8.4
v -7.4 1.7 -8.4
v -7.3 1.7 -8.4
v -7.2 1.7 -8.4
v -7.4 1.7 -8.5
v -7.3 1.7 -8.5
v -7.2 1.7 -8.5
v -7.5 1.7 -8.7
v -7.3 1.7 -8.7
v -7.2 1.7 -8.7
v -7 2.1 -8.8
v -6.9 2.1 -8.8
v -6.8 2.1 -8.8
v -6.7 2.1 -8.8
v -7.1 2.1 -8.9
v -7 2.1 -8.9
v -6.9 2.1 -8.9
v -6.8 2.1 -8.9
v -6.7 2.1 -8.9
v -6.6 2.1 -8.9
v -7.1 2.1 -9
v -7 2.1 -9
v -6.7 2.1 -9
v -6.6 2.1 -9
v -7 2.1 -9.1
v -6.7 2.1 -9.1
v -7.1 2.1 -9.2
v -7 2.1 -9.2
v -6.8 2.1 -9.2
v -6.7 2.1 -9.2
v -6.6 2.1 -9.2
v -7 2.1 -9.3
v -6.8 2.1 -9.3
v -6.7 2.1 -9.3
v -7 2.2 -8.9
v -6.9 2.2 -8.9
v -6.8 2.2 -8.9
v -6.7 2.2 -8.9
v -7 2.2 -9.1
v -6.9 2.2 -9.1
v -6.8 2.2 -9.1
v -6.7 2.2 -9.1
v -7 2.2 -9.2
v -6.7 2.2 -9.2
v -6.8 2.7 -8.3
v -6.7 2.7 -8.3
v -6.6 2.7 -8.3
v -6.5 2.7 -8.3
v -6.9 2.7 -8.4
v -6.8 2.7 -8.4
v -6.7 2.7 -8.4
v -6.6 2.7 -8.4
v -6.5 2.7 -8.4
v -6.4 2.7 -8.4
v -6.9 2.7 -8.5
v -6.8 2.7 -8.5
v -6.5 2.7 -8.5
v -6.4 2.7 -8.5
v -6.9 2.7 -8.6
v -6.8 2.7 -8.6
v -6.9 2.7 -8.7
v -6.8 2.7 -8.7
v -6.7 2.7 -8.7
v -6.6 2.7 -8.7
v -6.5 2.7 -8.7
v -6.4 2.7 -8.7
v -6.8 2.7 -8.8
v -6.7 2.7 -8.8
v -6.6 2.7 -8.8
v -6.5 2.7 -8.8
v -6.8 2.8 -8.4
v -6.5 2.8 -8.4
v -6.8 2.8 -8.5
v -6.6 2.8 -8.5
v -6.8 2.8 -8.7
v -6.6 2.8 -8.7
v -6.5 2.8 -8.7

# faces
f 4/1/1 2/1/1 1/1/1
f 5/2/1 3/2/1 2/2/1
f 5/1/1 2/1/1 4/1/1
f 6/2/1 3/2/1 5/2/1
f 7/2/1 5/2/1 4/2/1
f 8/1/1 6/1/1 5/1/1
f 8/2/1 5/2/1 7/2/1
f 9/2/1 7/2/1 4/2/1
f 10/1/1 8/1/1 7/1/1
f 10/2/1 7/2/1 9/2/1
f 11/1/1 6/1/1 8/1/1
f 11/1/1 8/1/1 10/1/1
f 15/1/1 13/1/1 12/1/1
f 16/1/1 13/1/1 15/1/1
f 17/1/1 13/1/1 16/1/1
f 19/2/1 15/2/1 14/2/1
f 20/2/1 18/2/1 17/2/1
f 21/2/1 18/2/1 20/2/1
f 22/2/1 18/2/1 21/2/1
f 23/2/1 19/2/1 14/2/1
f 24/2/1 19/2/1 23/2/1
f 26/1/1 22/1/1 21/1/1
f 27/1/1 22/1/1 26/1/1
f 28/2/1 25/2/1 24/2/1
f 28/2/1 26/2/1 25/2/1
f 29/2/1 26/2/1 28/2/1
f 32/3/1 31/3/1 30/3/1
f 33/3/1 31/3/1 32/3/1
f 37/1/1 36/1/1 35/1/1
f 38/1/1 36/1/1 37/1/1
f 39/2/1 35/2/1 34/2/1
f 40/1/1 37/1/1 35/1/1
f 40/2/1 35/2/1 39/2/1
f 41/2/1 38/2/1 37/2/1
f 41/1/1 37/1/1 40/1/1
f 42/1/1 40/1/1 39/1/1
f 43/2/1 41/2/1 40/2/1
f 43/1/1 40/1/1 42/1/1
f 44/2/1 38/2/1 41/2/1
f 44/2/1 41/2/1 43/2/1
f 48/2/1 46/2/1 45/2/1
f 49/2/1 46/2/1 48/2/1
f 50/2/1 46/2/1 49/2/1
f 52/1/1 51/1/1 50/1/1
f 53/1/1 51/1/1 52/1/1
f 54/2/1 48/2/1 47/2/1
f 55/2/1 54/2/1 47/2/1
f 56/2/1 54/2/1 55/2/1
f 59/2/1 53/2/1 52/2/1
f 60/2/1 53/2/1 59/2/1
f 61/2/1 58/2/1 57/2/1
f 61/2/1 57/2/1 56/2/1
f 62/1/1 59/1/1 58/1/1
f 62/2/1 58/2/1 61/2/1
f 63/1/1 59/1/1 62/1/1
f 66/3/1 65/3/1 64/3/1
f 67/3/1 65/3/1 66/3/1
f 72/2/1 69/2/1 68/2/1
f 72/1/1 70/1/1 69/1/1
f 73/2/1 71/2/1 70/2/1
f 73/1/1 70/1/1 72/1/1
f 74/2/1 72/2/1 68/2/1
f 74/2/1 73/2/1 72/2/1
f 75/2/1 73/2/1 74/2/1
f 76/2/1 71/2/1 73/2/1
f 76/2/1 73/2/1 75/2/1
f 77/2/1 71/2/1 76/2/1
f 78/1/1 75/1/1 74/1/1
f 79/2/1 76/2/1 75/2/1
f 79/1/1 75/1/1 78/1/1
f 80/1/1 77/1/1 76/1/1
f 80/2/1 76/2/1 79/2/1
f 81/1/1 77/1/1 80/1/1
f 87/1/1 83/1/1 82/1/1
f 88/2/1 84/2/1 83/2/1
f 88/1/1 83/1/1 87/1/1
f 89/1/1 85/1/1 84/1/1
f 89/2/1 84/2/1 88/2/1
f 90/1/1 85/1/1 89/1/1
f 92/1/1 91/1/1 90/1/1
f 93/1/1 91/1/1 92/1/1
f 94/1/1 87/1/1 86/1/1
f 95/1/1 87/1/1 94/1/1
f 96/2/1 93/2/1 92/2/1
f 97/2/1 95/2/1 94/2/1
f 98/2/1 95/2/1 97/2/1
f 101/2/1 93/2/1 96/2/1
f 102/2/1 93/2/1 101/2/1
f 103/1/1 99/1/1 98/1/1
f 104/2/1 100/2/1 99/2/1
f 104/1/1 99/1/1 103/1/1
f 104/2/1 101/2/1 100/2/1
f 105/2/1 101/2/1 104/2/1
f 108/3/1 107/3/1 106/3/1
f 109/3/1 107/3/1 108/3/1
f 110/3/2 111/3/2 112/3/2
f 112/3/2 111/3/2 113/3/2
f 114/2/2 115/2/2 118/2/2
f 115/1/2 116/1/2 119/1/2
f 118/2/2 115/2/2 119/2/2
f 119/1/2 116/1/2 120/1/2
f 117/1/2 118/1/2 122/1/2
f 122/1/2 118/1/2 123/1/2
f 120/1/2 121/1/2 124/1/2
f 122/2/2 123/2/2 125/2/2
f 125/2/2 123/2/2 126/2/2
f 124/1/2 121/1/2 127/1/2
f 127/1/2 121/1/2 128/1/2
f 125/1/2 126/1/2 129/1/2
f 129/1/2 126/1/2 130/1/2
f 127/2/2 128/2/2 133/2/2
f 133/2/2 128/2/2 134/2/2
f 130/2/2 131/2/2 135/2/2
f 131/1/2 132/1/2 136/1/2
f 135/2/2 131/2/2 136/2/2
f 132/1/2 133/1/2 136/1/2
f 136/1/2 133/1/2 137/1/2
f 138/1/2 139/1/2 141/1/2
f 141/1/2 139/1/2 142/1/2
f 139/2/2 140/2/2 143/2/2
f 142/1/2 139/1/2 143/1/2
f 143/2/2 140/2/2 144/2/2
f 141/2/2 142/2/2 145/2/2
f 142/1/2 143/1/2 146/1/2
f 145/2/2 142/2/2 146/2/2
f 143/1/2 144/1/2 146/1/2
f 146/1/2 144/1/2 147/1/2
f 145/1/2 146/1/2 148/1/2
f 146/2/2 147/2/2 149/2/2
f 148/1/2 146/1/2 149/1/2
f 147/1/2 144/1/2 150/1/2
f 149/2/2 147/2/2 150/2/2
f 150/1/2 144/1/2 151/1/2
f 152/3/2 153/3/2 154/3/2
f 154/3/2 153/3/2 155/3/2
f 156/1/2 157/1/2 160/1/2
f 157/2/2 158/2/2 161/2/2
f 160/1/2 157/1/2 161/1/2
f 161/2/2 158/2/2 162/2/2
f 162/2/2 158/2/2 163/2/2
f 163/2/2 164/2/2 165/2/2
f 165/2/2 164/2/2 166/2/2
f 159/1/2 160/1/2 167/1/2
f 167/1/2 160/1/2 168/1/2
f 167/2/2 168/2/2 169/2/2
f 169/2/2 168/2/2 170/2/2
f 165/1/2 166/1/2 173/1/2
f 173/1/2 166/1/2 174/1/2
f 171/2/2 172/2/2 175/2/2
f 170/2/2 171/2/2 175/2/2
f 172/1/2 173/1/2 176/1/2
f 175/2/2 172/2/2 176/2/2
f 176/1/2 173/1/2 177/1/2
f 180/1/2 181/1/2 183/1/2
f 181/2/2 182/2/2 184/2/2
f 183/1/2 181/1/2 184/1/2
f 180/1/2 183/1/2 185/1/2
f 183/2/2 184/2/2 186/2/2
f 185/1/2 183/1/2 186/1/2
f 184/2/2 182/2/2 187/2/2
f 186/2/2 184/2/2 187/2/2
f 178/3/2 179/3/2 188/3/2
f 188/3/2 179/3/2 189/3/2
f 190/2/2 191/2/2 193/2/2
f 193/2/2 191/2/2 194/2/2
f 194/2/2 191/2/2 195/2/2
f 195/2/2 191/2/2 196/2/2
f 192/2/2 193/2/2 198/2/2
f 198/2/2 193/2/2 199/2/2
f 198/1/2 199/1/2 200/1/2
f 200/1/2 199/1/2 201/1/2
f 200/2/2 201/2/2 202/2/2
f 202/2/2 201/2/2 203/2/2
f 196/2/2 197/2/2 205/2/2
f 205/2/2 197/2/2 206/2/2
f 203/1/2 204/1/2 207/1/2
f 204/1/2 205/1/2 207/1/2
f 207/1/2 205/1/2 208/1/2
f 209/1/2 210/1/2 213/1/2
f 210/2/2 211/2/2 214/2/2
f 213/1/2 210/1/2 214/1/2
f 211/1/2 212/1/2 215/1/2
f 214/2/2 211/2/2 215/2/2
f 213/2/2 214/2/2 216/2/2
f 214/1/2 215/1/2 217/1/2
f 216/2/2 214/2/2 217/2/2
f 215/1/2 212/1/2 218/1/2
f 217/1/2 215/1/2 218/1/2
f 221/2/3 220/2/3 219/2/3
f 222/2/3 220/2/3 221/2/3
f 223/2/3 220/2/3 222/2/3
f 224/2/3 220/2/3 223/2/3
f 225/1/3 222/1/3 221/1/3
f 226/2/3 223/2/3 222/2/3
f 226/1/3 222/1/3 225/1/3
f 227/1/3 224/1/3 223/1/3
f 227/2/3 223/2/3 226/2/3
f 228/1/3 224/1/3 227/1/3
f 232/1/3 230/1/3 229/1/3
f 232/2/3 231/2/3 230/2/3
f 233/2/3 231/2/3 232/2/3
f 234/1/3 232/1/3 229/1/3
f 234/1/3 233/1/3 232/1/3
f 235/1/3 233/1/3 234/1/3
f 236/1/3 233/1/3 235/1/3
f 237/1/3 233/1/3 236/1/3
f 238/2/3 235/2/3 234/2/3
f 239/1/3 236/1/3 235/1/3
f 239/2/3 235/2/3 238/2/3
f 240/2/3 237/2/3 236/2/3
f 240/1/3 236/1/3 239/1/3
f 241/2/3 237/2/3 240/2/3
f 246/1/3 243/1/3 242/1/3
f 247/2/3 244/2/3 243/2/3
f 247/1/3 243/1/3 246/1/3
f 248/2/3 244/2/3 247/2/3
f 250/2/3 249/2/3 248/2/3
f 251/2/3 249/2/3 250/2/3
f 252/1/3 246/1/3 245/1/3
f 253/1/3 246/1/3 252/1/3
f 254/1/3 251/1/3 250/1/3
f 255/1/3 251/1/3 254/1/3
f 256/2/3 253/2/3 252/2/3
f 257/2/3 253/2/3 256/2/3
f 260/2/3 255/2/3 254/2/3
f 261/2/3 255/2/3 260/2/3
f 262/1/3 258/1/3 257/1/3
f 263/2/3 259/2/3 258/2/3
f 263/1/3 258/1/3 262/1/3
f 264/1/3 260/1/3 259/1/3
f 264/2/3 259/2/3 263/2/3
f 265/1/3 260/1/3 264/1/3
f 270/2/3 267/2/3 266/2/3
f 271/1/3 268/1/3 267/1/3
f 271/2/3 267/2/3 270/2/3
f 272/1/3 268/1/3 271/1/3
f 274/1/3 273/1/3 272/1/3
f 275/1/3 270/1/3 269/1/3
f 276/1/3 270/1/3 275/1/3
f 277/1/3 273/1/3 274/1/3
f 278/2/3 276/2/3 275/2/3
f 279/2/3 276/2/3 278/2/3
f 282/1/3 273/1/3 277/1/3
f 283/1/3 273/1/3 282/1/3
f 284/1/3 281/1/3 280/1/3
f 284/1/3 280/1/3 279/1/3
f 285/2/3 282/2/3 281/2/3
f 285/1/3 281/1/3 284/1/3
f 286/2/3 282/2/3 285/2/3
f 289/3/3 288/3/3 287/3/3
f 290/3/3 288/3/3 289/3/3
f 293/3/3 292/3/3 291/3/3
f 294/3/3 292/3/3 293/3/3
f 297/2/3 296/2/3 295/2/3
f 298/2/3 296/2/3 297/2/3
f 299/2/3 297/2/3 295/2/3
f 300/1/3 298/1/3 297/1/3
f 300/2/3 297/2/3 299/2/3
f 301/1/3 298/1/3 300/1/3
f 302/1/3 298/1/3 301/1/3
f 303/1/3 300/1/3 299/1/3
f 303/1/3 301/1/3 300/1/3
f 304/2/3 302/2/3 301/2/3
f 304/1/3 301/1/3 303/1/3
f 305/2/3 302/2/3 304/2/3
f 310/2/3 307/2/3 306/2/3
f 311/1/3 308/1/3 307/1/3
f 311/2/3 307/2/3 310/2/3
f 312/1/3 308/1/3 311/1/3
f 314/2/3 310/2/3 309/2/3
f 315/2/3 310/2/3 314/2/3
f 316/2/3 313/2/3 312/2/3
f 317/2/3 313/2/3 316/2/3
f 318/1/3 315/1/3 314/1/3
f 319/1/3 317/1/3 316/1/3
f 320/1/3 317/1/3 319/1/3
f 321/1/3 318/1/3 314/1/3
f 322/1/3 318/1/3 321/1/3
f 324/2/3 320/2/3 319/2/3
f 325/2/3 320/2/3 324/2/3
f 326/1/3 323/1/3 322/1/3
f 326/1/3 324/1/3 323/1/3
f 327/1/3 324/1/3 326/1/3
f 330/3/3 329/3/3 328/3/3
f 331/3/3 329/3/3 330/3/3
f 332/3/4 333/3/4 334/3/4
f 334/3/4 333/3/4 335/3/4
f 336/3/4 337/3/4 338/3/4
f 338/3/4 337/3/4 339/3/4
f 340/2/4 341/2/4 344/2/4
f 341/1/4 342/1/4 345/1/4
f 344/2/4 341/2/4 345/2/4
f 345/1/4 342/1/4 346/1/4
f 346/1/4 342/1/4 347/1/4
f 347/2/4 348/2/4 349/2/4
f 343/1/4 344/1/4 350/1/4
f 349/2/4 348/2/4 351/2/4
f 351/2/4 348/2/4 352/2/4
f 343/1/4 350/1/4 353/1/4
f 353/1/4 350/1/4 354/1/4
f 351/1/4 352/1/4 357/1/4
f 357/1/4 352/1/4 358/1/4
f 354/2/4 355/2/4 359/2/4
f 355/1/4 356/1/4 360/1/4
f 359/2/4 355/2/4 360/2/4
f 356/1/4 357/1/4 360/1/4
f 360/1/4 357/1/4 361/1/4
f 362/2/4 363/2/4 366/2/4
f 366/2/4 363/2/4 367/2/4
f 363/1/4 364/1/4 368/1/4
f 367/2/4 363/2/4 368/2/4
f 368/1/4 364/1/4 369/1/4
f 365/1/4 366/1/4 371/1/4
f 369/2/4 370/2/4 372/2/4
f 365/1/4 371/1/4 373/1/4
f 373/1/4 371/1/4 374/1/4
f 372/2/4 370/2/4 375/2/4
f 375/2/4 370/2/4 376/2/4
f 373/2/4 374/2/4 377/2/4
f 377/2/4 374/2/4 378/2/4
f 375/1/4 376/1/4 379/1/4
f 379/1/4 376/1/4 380/1/4
f 378/1/4 379/1/4 381/1/4
f 381/1/4 379/1/4 382/1/4
f 383/2/4 384/2/4 386/2/4
f 384/1/4 385/1/4 387/1/4
f 386/2/4 384/2/4 387/2/4
f 387/1/4 385/1/4 388/1/4
f 383/2/4 386/2/4 389/2/4
f 386/1/4 387/1/4 390/1/4
f 389/2/4 386/2/4 390/2/4
f 389/1/4 390/1/4 391/1/4
f 387/2/4 388/2/4 392/2/4
f 391/1/4 390/1/4 392/1/4
f 390/1/4 387/1/4 392/1/4
f 392/2/4 388/2/4 393/2/4
f 394/1/4 395/1/4 397/1/4
f 395/2/4 396/2/4 398/2/4
f 397/1/4 395/1/4 398/1/4
f 398/2/4 396/2/4 399/2/4
f 399/2/4 396/2/4 400/2/4
f 397/2/4 398/2/4 401/2/4
f 398/2/4 399/2/4 401/2/4
f 399/1/4 400/1/4 401/1/4
f 401/1/4 400/1/4 402/1/4
f 397/2/4 401/2/4 403/2/4
f 401/2/4 402/2/4 403/2/4
f 403/2/4 402/2/4 404/2/4
f 405/3/4 406/3/4 407/3/4
f 407/3/4 406/3/4 408/3/4
f 409/1/4 410/1/4 413/1/4
f 410/2/4 411/2/4 414/2/4
f 413/1/4 410/1/4 414/1/4
f 414/2/4 411/2/4 415/2/4
f 412/2/4 413/2/4 417/2/4
f 415/1/4 416/1/4 418/1/4
f 412/2/4 417/2/4 419/2/4
f 419/2/4 417/2/4 420/2/4
f 418/1/4 416/1/4 422/1/4
f 422/1/4 416/1/4 423/1/4
f 420/2/4 421/2/4 424/2/4
f 421/2/4 422/2/4 424/2/4
f 424/2/4 422/2/4 425/2/4
f 426/1/4 427/1/4 429/1/4
f 427/2/4 428/2/4 430/2/4
f 429/1/4 427/1/4 430/1/4
f 430/2/4 428/2/4 431/2/4
f 429/2/4 430/2/4 432/2/4
f 430/1/4 431/1/4 433/1/4
f 432/2/4 430/2/4 433/2/4
f 433/1/4 431/1/4 434/1/4
f 439/3/5 436/3/5 435/3/5
f 440/3/5 436/3/5 439/3/5
f 441/3/5 438/3/5 437/3/5
f 442/3/5 438/3/5 441/3/5
f 445/3/5 444/3/5 443/3/5
f 446/3/5 444/3/5 445/3/5
f 450/1/5 448/1/5 447/1/5
f 451/2/5 449/2/5 448/2/5
f 451/1/5 448/1/5 450/1/5
f 452/1/5 450/1/5 447/1/5
f 453/2/5 449/2/5 451/2/5
f 454/2/5 449/2/5 453/2/5
f 455/1/5 452/1/5 447/1/5
f 455/1/5 453/1/5 452/1/5
f 455/1/5 454/1/5 453/1/5
f 456/1/5 454/1/5 455/1/5
f 461/2/5 458/2/5 457/2/5
f 462/1/5 459/1/5 458/1/5
f 462/2/5 458/2/5 461/2/5
f 463/1/5 459/1/5 462/1/5
f 465/1/5 461/1/5 460/1/5
f 466/1/5 461/1/5 465/1/5
f 467/1/5 464/1/5 463/1/5
f 468/1/5 464/1/5 467/1/5
f 469/2/5 466/2/5 465/2/5
f 470/2/5 466/2/5 469/2/5
f 472/2/5 468/2/5 467/2/5
f 473/2/5 468/2/5 472/2/5
f 474/2/5 471/2/5 470/2/5
f 475/1/5 472/1/5 471/1/5
f 475/2/5 471/2/5 474/2/5
f 476/1/5 472/1/5 475/1/5
f 480/2/5 478/2/5 477/2/5
f 480/1/5 479/1/5 478/1/5
f 481/1/5 479/1/5 480/1/5
f 482/1/5 479/1/5 481/1/5
f 483/2/5 480/2/5 477/2/5
f 484/2/5 482/2/5 481/2/5
f 485/2/5 483/2/5 477/2/5
f 485/2/5 484/2/5 483/2/5
f 486/2/5 482/2/5 484/2/5
f 486/2/5 484/2/5 485/2/5
f 491/2/5 488/2/5 487/2/5
f 492/2/5 488/2/5 491/2/5
f 493/1/5 489/1/5 488/1/5
f 493/2/5 488/2/5 492/2/5
f 494/1/5 489/1/5 493/1/5
f 496/2/5 491/2/5 490/2/5
f 497/2/5 491/2/5 496/2/5
f 498/1/5 495/1/5 494/1/5
f 499/1/5 495/1/5 498/1/5
f 500/1/5 495/1/5 499/1/5
f 501/1/5 497/1/5 496/1/5
f 502/1/5 497/1/5 501/1/5
f 504/2/5 500/2/5 499/2/5
f 505/2/5 500/2/5 504/2/5
f 506/1/5 503/1/5 502/1/5
f 507/2/5 504/2/5 503/2/5
f 507/1/5 503/1/5 506/1/5
f 508/2/5 504/2/5 507/2/5
f 512/1/5 510/1/5 509/1/5
f 513/1/5 510/1/5 512/1/5
f 514/2/5 511/2/5 510/2/5
f 514/1/5 510/1/5 513/1/5
f 515/2/5 513/2/5 512/2/5
f 516/2/5 513/2/5 515/2/5
f 517/2/5 511/2/5 514/2/5
f 518/1/5 516/1/5 515/1/5
f 518/1/5 517/1/5 516/1/5
f 519/2/5 511/2/5 517/2/5
f 519/1/5 517/1/5 518/1/5
f 520/2/5 511/2/5 519/2/5
f 525/1/5 522/1/5 521/1/5
f 526/2/5 523/2/5 522/2/5
f 526/1/5 522/1/5 525/1/5
f 527/2/5 523/2/5 526/2/5
f 529/2/5 525/2/5 524/2/5
f 530/2/5 525/2/5 529/2/5
f 531/1/5 528/1/5 527/1/5
f 532/1/5 528/1/5 531/1/5
f 533/1/5 530/1/5 529/1/5
f 534/1/5 530/1/5 533/1/5
f 535/2/5 532/2/5 531/2/5
f 536/2/5 532/2/5 535/2/5
f 537/2/5 534/2/5 533/2/5
f 538/2/5 534/2/5 537/2/5
f 541/1/5 536/1/5 535/1/5
f 542/1/5 536/1/5 541/1/5
f 543/1/5 539/1/5 538/1/5
f 544/2/5 540/2/5 539/2/5
f 544/1/5 539/1/5 543/1/5
f 544/2/5 541/2/5 540/2/5
f 545/2/5 541/2/5 544/2/5
f 546/2/6 547/2/6 550/2/6
f 550/2/6 547/2/6 551/2/6
f 547/1/6 548/1/6 552/1/6
f 551/2/6 547/2/6 552/2/6
f 552/1/6 548/1/6 553/1/6
f 549/2/6 550/2/6 555/2/6
f 555/2/6 550/2/6 556/2/6
f 553/1/6 554/1/6 557/1/6
f 557/1/6 554/1/6 558/1/6
f 557/2/6 558/2/6 559/2/6
f 559/2/6 558/2/6 560/2/6
f 555/1/6 556/1/6 561/1/6
f 561/1/6 556/1/6 562/1/6
f 559/1/6 560/1/6 565/1/6
f 565/1/6 560/1/6 566/1/6
f 562/1/6 563/1/6 567/1/6
f 563/2/6 564/2/6 568/2/6
f 567/1/6 563/1/6 568/1/6
f 564/2/6 565/2/6 568/2/6
f 568/2/6 565/2/6 569/2/6
f 570/2/6 571/2/6 574/2/6
f 571/1/6 572/1/6 574/1/6
f 572/2/6 573/2/6 575/2/6
f 574/1/6 572/1/6 575/1/6
f 575/2/6 573/2/6 576/2/6
f 570/2/6 574/2/6 577/2/6
f 574/2/6 575/2/6 577/2/6
f 575/1/6 576/1/6 578/1/6
f 577/2/6 575/2/6 578/2/6
f 578/1/6 576/1/6 579/1/6
f 580/2/6 581/2/6 585/2/6
f 581/1/6 582/1/6 586/1/6
f 585/2/6 581/2/6 586/2/6
f 582/2/6 583/2/6 587/2/6
f 586/1/6 582/1/6 587/1/6
f 587/2/6 583/2/6 588/2/6
f 584/1/6 585/1/6 590/1/6
f 590/1/6 585/1/6 591/1/6
f 588/1/6 589/1/6 592/1/6
f 592/1/6 589/1/6 593/1/6
f 590/2/6 591/2/6 594/2/6
f 592/2/6 593/2/6 595/2/6
f 590/2/6 594/2/6 596/2/6
f 596/2/6 594/2/6 597/2/6
f 595/2/6 593/2/6 599/2/6
f 599/2/6 593/2/6 600/2/6
f 597/2/6 598/2/6 601/2/6
f 598/1/6 599/1/6 602/1/6
f 601/2/6 598/2/6 602/2/6
f 602/1/6 599/1/6 603/1/6
f 604/2/6 605/2/6 608/2/6
f 605/1/6 606/1/6 609/1/6
f 608/2/6 605/2/6 609/2/6
f 606/2/6 607/2/6 610/2/6
f 609/1/6 606/1/6 610/1/6
f 610/2/6 607/2/6 611/2/6
f 608/1/6 609/1/6 612/1/6
f 609/1/6 610/1/6 612/1/6
f 610/1/6 611/1/6 612/1/6
f 612/1/6 611/1/6 613/1/6
f 614/2/6 615/2/6 619/2/6
f 615/1/6 616/1/6 620/1/6
f 619/2/6 615/2/6 620/2/6
f 616/2/6 617/2/6 621/2/6
f 620/1/6 616/1/6 621/1/6
f 621/2/6 617/2/6 622/2/6
f 618/1/6 619/1/6 624/1/6
f 624/1/6 619/1/6 625/1/6
f 622/2/6 623/2/6 626/2/6
f 626/2/6 623/2/6 627/2/6
f 624/2/6 625/2/6 628/2/6
f 628/2/6 625/2/6 629/2/6
f 628/1/6 629/1/6 630/1/6
f 630/1/6 629/1/6 631/1/6
f 626/1/6 627/1/6 634/1/6
f 634/1/6 627/1/6 635/1/6
f 631/2/6 632/2/6 636/2/6
f 632/1/6 633/1/6 637/1/6
f 636/2/6 632/2/6 637/2/6
f 633/2/6 634/2/6 638/2/6
f 637/1/6 633/1/6 638/1/6
f 638/2/6 634/2/6 639/2/6
f 640/1/6 641/1/6 642/1/6
f 642/1/6 641/1/6 643/1/6
f 642/2/6 643/2/6 644/2/6
f 643/1/6 641/1/6 645/1/6
f 644/2/6 643/2/6 645/2/6
f 645/1/6 641/1/6 646/1/6
